<svg xmlns="http://www.w3.org/2000/svg" viewBox="0 0 48 48"><path fill="#d85b53" fill-rule="evenodd" d="M46.627 21.895 37.392 41.7a3.973 3.973 0 0 1-5.28 1.922l-5.423-2.529a.99.99 0 0 1-.683-.936 1 1 0 0 1 1-1c.171 0 .324.054.465.13l.009-.017 5.472 2.551a1.986 1.986 0 0 0 2.64-.961l9.235-19.805a1.987 1.987 0 0 0-.961-2.64l-6.859-3.199s-1.031-.356-1.031-1.122a1 1 0 0 1 1-1 .98.98 0 0 1 .479.139l7.251 3.381a3.976 3.976 0 0 1 1.921 5.281zM29.006 36h-24a4 4 0 0 1-4-4V8a4 4 0 0 1 4-4h24a4 4 0 0 1 4 4v24a4 4 0 0 1-4 4zm-11-10v-1l1.158-.468c.58-.466 2.045-1.847 2.045-1.847l.04-.196c.305-1.511.735-4.001.735-4.804 0-3.24-1.535-4.686-4.979-4.686s-4.979 1.445-4.979 4.686c0 .872.451 3.407.735 4.801l.04.245c.327.329 1.24 1.205 2.054 1.768l1.151.501v1c-.008-.081 0 2 0 2 0 1.617-1.105 2.084-2.62 2.084h-.003c-3.398.133-3.927 1.253-4.046 1.383-.107.159-.224 2.181-.339 2.533h16.018c-.113-.351-.225-2.363-.347-2.545-.047-.056-.493-1.219-3.963-1.369-1.594 0-2.7-.468-2.7-2.086 0 0 .018-2.141 0-2zm13-18a2 2 0 0 0-2-2h-24a2 2 0 0 0-2 2v24a2 2 0 0 0 2 2h1.805c.349-.644.533-3.148.891-3.686 0 0 .623-2.038 5.529-2.229.5 0 .75-.313.75-.793v-.693c0-.097-.016-.183-.021-.277-.436-.347-.539-.479-1.295-1.109 0 0-1.674-1.096-1.861-2.327 0 0-.775-3.8-.775-5.2 0-3.45 1.54-6.686 6.979-6.686 5.365 0 6.979 3.235 6.979 6.686 0 1.366-.775 5.2-.775 5.2-.156 1.166-1.861 2.327-1.861 2.327-.678.629-.985.894-1.374 1.148-.003.081-.018.155-.018.238v.693c0 .479.25.793.75.793 4.98.214 5.604 2.229 5.604 2.229.357.537.542 3.042.892 3.686h1.804a2 2 0 0 0 2-2V8z" class="color000000 svgShape" clip-rule="evenodd"/></svg>